<svg xmlns="http://www.w3.org/2000/svg" viewBox="0 0 300 300"><defs><style>.adesign{fill:#fff}.bdesign{fill:#9ef2eb}.cdesign{fill:#ffdb43}.ddesign{fill:#ffc5ff}</style></defs><path class="adesign" d="M218.256 110.987l75.921 43.876v75.92l-75.921-43.824v-75.972zM180.245 89.075l38.011 21.912v37.961l-38.011-21.912V89.075zM256.217 94.939l37.96 21.912v38.012l-37.96-21.964v-37.96zM158.487 189.737H17.551l94.232 56.066h140.782l-94.078-56.066z"/><path class="bdesign" d="M86.836 112.479L78.76 82.234a7.188 7.188 0 015.041-8.8l.154-.052a7.19 7.19 0 018.8 5.041l.977 3.652 31.582 118.3-3.914 13.434-10.133-9.618z"/><path d="M211.775 221.268l31.377-.463 42.384 24.998h-32.971l-40.79-24.535z"/><path class="bdesign" d="M193.155 209.746l18.62 11.059 31.377-.412-19.186-10.647h-30.811z"/><path class="cdesign" d="M175.718 199.767l17.232 9.979 31.016-.309-16.974-10.03-31.274.36z"/><path class="ddesign" d="M158.487 189.737l17.231 10.03 31.274-.36-16.357-9.67h-32.148zM66.621 131.305l-47.682 3.755L34.37 98.334a14.414 14.414 0 0125.513-2.006l10.7 17.231 39.143-2.726a3.229 3.229 0 013.446 2.983v.052a3.228 3.228 0 01-2.983 3.446 3.229 3.229 0 013.446 2.983v.052a3.228 3.228 0 01-2.983 3.446 3.229 3.229 0 013.446 2.984v.051a3.228 3.228 0 01-2.983 3.446l-42.847 3.035z"/><path class="cdesign" d="M70.53 69.838l-21.449 2.881L52.939 63l-.463-.669-11.47-5.812s-3.035-1.955-2.212-4.526 2.417-3.035 2.417-3.035l6.481-3.5a4.646 4.646 0 014.115-.206l.618.309c1.8 1.183 2.057 2.829 1.8 3.395S53.4 61.917 53.4 61.917l.309.72zM58.494 131.871L90.745 167l-15.02 32.919H53.093l13.22-26.644-4.27.463a4.034 4.034 0 01-2.469-.463c-.977-.514-2.263-1.491-2.057-2.623a10.819 10.819 0 000-1.286c.206-1.44 1.7-2.52 3.086-2.88l3.292-.926-16.46-13.734-13.991 48.095H6.7l5.556-8.024s3.086-5.5 2.88-8.024a42.844 42.844 0 00-1.492-6.738s-1.234-4.269.206-7.355a24.768 24.768 0 013.035-4.99s5.3-5.658 5.709-9.773c.36-4.115-1.646-9.31-1.646-9.31s-.36-4.372.978-6.738a41.645 41.645 0 012.932-4.424z"/><path d="M9.063 216.638l4.475-16.151 21.6-.463s7.355.463 9.31 6.018a36.662 36.662 0 012.057 10.236zM56.642 216.638l4.578-16.614 19.238-.1s6.429.823 9.361 5.2 2.675 7.406 2.675 7.406v4.115z"/><path class="cdesign" d="M218.256 148.948l-38.011-21.912v37.96l38.011 21.963v-38.011z"/><path class="ddesign" d="M218.256 72.976l-38.011-21.912v37.96l38.011 21.912v-37.96z"/><path class="bdesign" d="M256.577 95.248l-37.96-21.964v38.012l37.96 21.912v-37.96z"/><path class="adesign" d="M197.27 72.1l13.271 20.935s1.9 2.983.36 4.578-3.5.463-4.372-.206a29.411 29.411 0 01-3.086-3.96l-11.471-18.774z"/><path d="M188.269 63.871s-1.492 1.286-.36 4.012a41.611 41.611 0 004.269 6.842l4.784-2.058L193 65.62s-1.8-2.726-4.629-1.9M251.587 149.256l12.654 42.796 10.493 6.069-12.654-42.795-10.493-6.07z"/><path class="adesign" d="M49.081 72.667l21.449-2.88-2.777 7.2 2.057 6.069-4.681.309s-3.549 9.516-12.7 6.224-4.839-13.321-4.839-13.321z"/><circle class="ddesign" cx="94.808" cy="85.269" r="3.446"/><circle class="ddesign" cx="96.866" cy="92.779" r="3.446"/><circle class="ddesign" cx="98.872" cy="100.289" r="3.343"/><path class="ddesign" d="M81.435 92.059l3.446 13.168-17.128 3.909-7.51-12.088 21.192-4.989z"/><circle cx="61.169" cy="77.811" r="1.492"/><path d="M190.841 188.965h-67.794l-15.328-57.506 3.4-.257a3.982 3.982 0 003.7-4.269v-.052a4.1 4.1 0 00-1.851-3.137c.154-.155.308-.257.463-.412a4.068 4.068 0 00.977-2.932v-.051a3.734 3.734 0 00-1.389-2.726 1.84 1.84 0 00-.514-.36 4.152 4.152 0 001.44-3.344v-.051a3.734 3.734 0 00-1.389-2.726 4.071 4.071 0 00-2.932-.978l-7.458.515-1.7-6.43a4.246 4.246 0 002.521-5.041 4.318 4.318 0 00-3.5-3.086 3.473 3.473 0 001.029-1.234 4.077 4.077 0 00.411-3.189 4.319 4.319 0 00-3.5-3.087 4.249 4.249 0 00-2.624-7.561 2.082 2.082 0 00-.565.052l-.772-2.829a7.959 7.959 0 00-3.7-4.835 7.7 7.7 0 00-6.018-.772l-.155.052a7.954 7.954 0 00-5.606 9.721l2.417 9.053L60.5 96.019l-.051-.051a15.185 15.185 0 00-4.732-4.835h.154a10.077 10.077 0 009.361-6.275l.309-.721 5.2-.36-2.315-6.738c.515-1.286 2.829-6.892 2.829-6.892l.309-.72-17.694-7.3.874-12.808a4.837 4.837 0 00-1.286-3.7 4.906 4.906 0 00-3.658-1.602 5.126 5.126 0 00-2.314.566l-7.1 3.755a4.953 4.953 0 00.1 8.8l11.574 5.813-5.653 14.088a10.109 10.109 0 003.086 11.831 15.456 15.456 0 00-3.086-.052A14.98 14.98 0 0033.6 98.077l-15.9 37.857 5.4-.411-.206.205a13.716 13.716 0 00-2.058 13.477l.052.154a11.925 11.925 0 01-2.675 12.859l-2.057 2.058a13.692 13.692 0 00-3.138 14.145l.412 1.234A12.044 12.044 0 0112 190.611l-7 10.031h7.51l-4.63 16.716h39.2v-4.32a14.625 14.625 0 00-.931-5.038l10.236 6.018-.926 3.292h6.533l49.225 29.062.2.1H288.21l-97.164-57.352zM39.463 52.813a3.4 3.4 0 011.8-3.035l7.1-3.755a3.5 3.5 0 011.6-.412 3.634 3.634 0 012.52 1.081 3.115 3.115 0 01.874 2.571l-.823 12.242L41.366 55.9a3.542 3.542 0 01-1.903-3.087zm14.453 11.058v-.1l13.837 5.709-17.437 2.261 3.292-8.024zM47.847 84.24a8.585 8.585 0 010-6.584l1.753-4.269 19.85-2.572-2.006 4.785c-.514 1.286-.669 1.595-.411 1.852l1.646 4.886-4.167.257-.668 1.595c-.052.154-.155.309-.206.463a3.848 3.848 0 01-1.338.206 4.367 4.367 0 01-4.372-3.959v-.463h-1.543a2.472 2.472 0 00.052.617 5.962 5.962 0 005.915 5.35h.206a8.553 8.553 0 01-6.636 3.137 8.2 8.2 0 01-3.292-.668l-.154-.052a8.259 8.259 0 01-4.629-4.581zM195.11 210.517h29.113l16.1 9.516H211.21zm-2.623-1.543l-14.2-8.384H207.4l14.2 8.384zm-11.162-13.888L175.513 199l-13.323-7.87zm-14.145-4.577h20.935l-4.938 3.343zm16.305 4.989l16.82 3.5H178.29zm1.749-1.183l5.4-3.652 12.448 7.355zm-60.747 6.121l-3.5 11.985-9-8.59-19.03-71.292 13.167-.925zm-56.734-66.148l23.609-1.7 15.02 56.374h-25.2l10.441-21.86-31.74-34.511 6.327-.515zm33.691-34.72a2.65 2.65 0 01-1.9 3.292 3.01 3.01 0 01-.721.1 2.723 2.723 0 01-2.317-4.06 2.52 2.52 0 011.646-1.235 3.06 3.06 0 01.72-.1 2.688 2.688 0 012.572 2.003zm-2.006-7.509a2.633 2.633 0 01-.257 2.057 2.522 2.522 0 01-1.646 1.235 3.061 3.061 0 01-.721.1 2.7 2.7 0 01-.668-5.3 3.009 3.009 0 01.72-.1 2.688 2.688 0 012.572 2.008zm-2.006-7.51a2.651 2.651 0 01-1.9 3.292 3.061 3.061 0 01-.721.1 2.724 2.724 0 01-2.314-4.064 2.516 2.516 0 011.646-1.234 3.009 3.009 0 01.72-.1 2.8 2.8 0 012.569 2.006zm-13.425-10.39l.154-.052a6.454 6.454 0 017.87 4.527l.771 2.88a4.452 4.452 0 00-1.646 1.595 4.081 4.081 0 00-.411 3.189 4.318 4.318 0 003.5 3.086 4.208 4.208 0 00-1.445 4.424 4.318 4.318 0 003.5 3.086 3.494 3.494 0 00-1.029 1.234 4.082 4.082 0 00-.411 3.189 4.229 4.229 0 004.063 3.138h.052l1.646 6.275-13.168.926-7.921-29.627a6.423 6.423 0 014.475-7.87zm1.851 37.6l-14.916 1.029-1.955-3.188 15.38-3.5zm-5.04-18.774l3.082 11.624-15.843 3.6-6.682-10.852zm-45.779 5.658a13.631 13.631 0 0124.124-1.9l10.956 17.643 39.606-2.777a2.346 2.346 0 011.8.617 2.434 2.434 0 01.823 1.7v.052a2.465 2.465 0 01-2.263 2.623l-14.968 1.029.1 1.543 14.968-1.029a2.35 2.35 0 011.8.617 2.434 2.434 0 01.823 1.7v.051a2.35 2.35 0 01-.617 1.8 2.437 2.437 0 01-1.7.822l-14.968 1.029.1 1.543 14.977-1.036a2.464 2.464 0 012.623 2.263v.051a2.465 2.465 0 01-2.263 2.624l-42.436 3.034L52.373 109.7l-1.286.874 14.094 20.009-45.11 3.549zm-21.655 92.894a13.693 13.693 0 001.646-12.345l-.411-1.234a12.176 12.176 0 012.781-12.551l2.058-2.057a13.629 13.629 0 002.983-14.5l-.051-.154a12.044 12.044 0 011.8-11.934l1.08-1.337 32.714-2.572 31.839 34.617L74.7 199.2H54.276l13.065-27.107-5.709.926a2.87 2.87 0 01-2.212-.514 2.972 2.972 0 01-1.234-1.9v-.052a2.919 2.919 0 012.314-3.395l4.784-.874-17.026-15.176 1.9-6.687-1.491-.411-15.891 55.14H8.086zM47.8 152.754l14.094 12.5-1.7.309a4.509 4.509 0 00-3.55 5.195v.051a4.627 4.627 0 001.852 2.932 4.54 4.54 0 003.344.772l2.777-.463-7.2 14.968H37.251zm-2.057 63.113H10.092l4.218-15.174h19.032a12.4 12.4 0 0112.4 12.4v2.778zm-.772-10.39a13.807 13.807 0 00-10.6-6.276l2.521-8.641h19.853l-4.886 10.133h8.435L57 212.575zm16.872-4.784h17.432a12.4 12.4 0 0112.4 12.4v2.778h-34.1zm3.343 16.717h28.079v-4.321a13.95 13.95 0 00-13.939-13.939h-2.932l4.115-8.59h26.336l3.754 14.094 11.162 10.646.155-.514a53.72 53.72 0 0010.6 2.469 11 11 0 004.423 8.692 25.3 25.3 0 009 4.115 77.2 77.2 0 0020.575 2.778 73.87 73.87 0 0013.888-1.286l-.257-1.492a75.543 75.543 0 01-33.743-1.491 23.163 23.163 0 01-8.435-3.858 9.641 9.641 0 01-3.858-7.3 54.586 54.586 0 0026.078-3.343 17.009 17.009 0 005.761-3.5 5.074 5.074 0 001.595-2.726 4.58 4.58 0 00-1.8-4.27 9.189 9.189 0 00-4.064-1.594c-6.018-1.08-12.756.309-20.009 4.115a21.92 21.92 0 00-5.915 4.166 11.454 11.454 0 00-3.035 5.4 51.3 51.3 0 01-10.338-2.469l3.7-12.859-2.623-9.927h34.822l92.278 54.523H111.988zm69.079-1.44a10.119 10.119 0 012.572-4.527 20.421 20.421 0 015.555-3.857c6.944-3.652 13.322-4.99 18.98-3.961a7.44 7.44 0 013.4 1.286 3.049 3.049 0 011.228 2.777 3.736 3.736 0 01-1.183 1.9 15.554 15.554 0 01-5.3 3.137 53 53 0 01-25.257 3.245zm119.333 29.061l-39.76-23.455h29.113l39.761 23.507h-29.119zM229.007 128.116l8.23 4.732.771-1.337-10.544-6.07v10.699h1.543v-8.024zM229.007 173.329h-1.543v9.824l9.773 5.658.771-1.337-9.001-5.195v-8.95zM237.905 175.952l-4.166-2.418-.772 1.338 10.6 6.121.772-1.338-5.092-2.932 4.886-10.133 14.248 8.23 5.247 17.746 12.447 7.2-13.375-44.955-11.471-6.635zm23.507-20.112l12.036 40.635-8.538-4.938-12.037-40.637zm-3.7 16.82L244.8 165.2l6.635-13.785zM283.427 213.706l-8.23-4.783-.772 1.337 10.545 6.121v-10.75h-1.543v8.075zM283.427 168.442h1.543v-9.824l-9.773-5.607-.772 1.338 9.002 5.143v8.95z"/><path d="M256.988 94.476l-37.96-21.912-39.5-22.838v115.733l37.96 21.912L295 232.121V116.44zm-1.543.926v36.16l-26.027-15.019-10.39-6.019V74.313zm-74.429-6.79V52.4l36.417 21.038v36.212l-18.157-10.493zm0 37.961v-36.16l18.209 10.493 18.208 10.494v36.21l-30.862-17.848zm0 38.011v-36.211l4.835 2.778 31.582 18.26v36.211zm112.389-9.31v74.172L218.977 186.5v-74.175l36.417 21.037 13.168 7.613zm-36.417-22.786V96.277l36.412 21.037v36.212z"/><path d="M210.85 92.522L198.4 72.873l1.44-.617-.617-1.441-1.7.721-3.185-5.036c-1.338-2.114-3.394-3.5-5.092-3.5a2.674 2.674 0 00-1.08.206h-.051a2.537 2.537 0 00-1.389 1.594 6.067 6.067 0 001.028 4.732l3.087 4.836-1.441.617.618 1.44 1.7-.72 12.6 19.906c1.337 2.109 3.395 3.5 5.092 3.5a2.691 2.691 0 001.08-.206h.052a2.539 2.539 0 001.389-1.595 6.38 6.38 0 00-1.081-4.788zm-21.81-23.867a4.79 4.79 0 01-.874-3.446.9.9 0 01.514-.617h.052a1.48 1.48 0 01.463-.1c1.028 0 2.623.977 3.806 2.777l3.086 4.835-3.806 1.596zm21.347 28.136a.9.9 0 01-.515.617h-.051c-.926.36-2.881-.566-4.269-2.726L193.1 75.033l3.806-1.594 12.6 19.906a4.508 4.508 0 01.881 3.446zM151.852 83.932h1.543v-8.487h8.435v-1.543h-8.435v-8.436h-1.543v8.436h-8.436v1.543h8.436v8.487zM140.484 159.338a4.475 4.475 0 10-4.475-4.475 4.478 4.478 0 004.475 4.475zm0-7.458a2.93 2.93 0 012.932 2.931 2.932 2.932 0 11-2.932-2.931z"/></svg>